<svg width="64" height="64" version="1" xmlns="http://www.w3.org/2000/svg">
 <defs>
  <style id="current-color-scheme" type="text/css">.ColorScheme-Text {
        color:#f07598;
      }
      .ColorScheme-Highlight {
        color:#ffffff;
      }</style>
 </defs>
<circle cx="32" cy="32" r="27" fill="#ffffff" style="paint-order:stroke fill markers"/><rect x="15" y="20" width="34" height="22" rx="1" ry="1" fill="#f07396"/><path d="M16 21h32v20H16z" class="ColorScheme-Highlight" fill="currentColor"/><path d="M11 42v1c0 .554.446 1 1 1h40c.554 0 1-.446 1-1v-1H12z" fill="#ffffff" style="paint-order:stroke fill markers"/><path d="M11 42v1c0 .554.446 1 1 1h40c.554 0 1-.446 1-1v-1H39c0 .554-.446 1-1 1H26c-.554 0-1-.446-1-1H12z" fill="#ffffff" style="paint-order:stroke fill markers"/></svg>
