<svg width="64" height="64" version="1.1" xmlns="http://www.w3.org/2000/svg">
 <circle cx="32" cy="32" r="27" fill="#ffffff" stroke-linecap="round" stroke-linejoin="round" stroke-width="1.6875"/>
 <g transform="translate(8,8)">
  <rect x="6" y="4" width="36" height="40" rx="3" ry="3" fill="#ffffff"/>
  <rect x="9" y="7" width="30" height="9" fill="#f9c8d6"/>
  <rect x="9" y="26" width="30" height="9" fill="#f9c8d6"/>
  <rect x="21" y="29" width="18" height="12" fill="#ffffff"/>
  <rect x="9" y="11" width="18" height="12" fill="#ffffff"/>
  <rect x="11" y="13" width="6" height="2" fill="#ffffff"/>
  <rect x="27" y="15" width="12" height="8" fill="#ffffff"/>
  <rect x="11" y="16" width="3" height="1" fill="#ffffff"/>
  <rect x="29" y="17" width="6" height="2" fill="#ffffff"/>
  <rect x="29" y="20" width="3" height="1" fill="#ffffff"/>
  <rect x="23" y="31" width="6" height="2" fill="#ffffff"/>
  <rect x="9" y="33" width="12" height="8" fill="#ffffff"/>
  <rect x="23" y="34" width="3" height="1" fill="#ffffff"/>
  <rect x="11" y="35" width="6" height="2" fill="#ffffff"/>
  <rect x="11" y="38" width="3" height="1" fill="#ffffff"/>
 </g>
</svg>
