<svg xmlns="http://www.w3.org/2000/svg" width="64" height="64"><rect width="54" height="54" x="5" y="5" fill="#f6a7bd" rx="27" ry="27"/><path fill="#ffffff" d="M32 10c-12.188 0-22 9.812-22 22a21.9 21.9 0 0 0 2.95 11H26a6 6 0 0 1 6-6 6 6 0 0 1 6 6h13.051a21.93 21.93 0 0 0 2.95-11c0-12.188-9.813-22-22-22z"/><path fill="none" stroke="#e71853" stroke-linecap="round" stroke-width="3" d="M14.125 26.4s5.5-6.875 17.875-6.875S49.875 26.4 49.875 26.4" opacity=".3"/><path fill="none" stroke="#f7b8ca" stroke-linecap="round" stroke-width="3" d="M39.405 20.433c7.191 1.868 10.47 5.967 10.47 5.967"/><path fill="#f38aa8" d="M23.777 26a2.8 2.8 0 0 0-1.377.375 2.8 2.8 0 0 0-1.025 3.826l5.547 9.604a6 6 0 0 1 4.85-2.8L26.223 27.4a2.8 2.8 0 0 0-2.447-1.4z" color="#e71853" style="font-feature-settings:normal;font-variant-alternates:normal;font-variant-caps:normal;font-variant-east-asian:normal;font-variant-ligatures:normal;font-variant-numeric:normal;font-variant-position:normal;font-variation-settings:normal;inline-size:0;isolation:auto;mix-blend-mode:normal;shape-margin:0;shape-padding:0;text-decoration-color:#e71853;text-decoration-line:none;text-decoration-style:solid;text-indent:0;text-orientation:mixed;text-transform:none;white-space:normal"/></svg>