<svg xmlns="http://www.w3.org/2000/svg" width="64" height="64"><path fill="#c0caf5" d="M32 5c14.912 0 27 12.088 27 27S46.912 59 32 59 5 46.912 5 32 17.088 5 32 5"/><rect width="36.4" height="5.6" x="13.8" y="29.2" fill="#7aa2f7" rx="1.4"/><path fill="#f7768e" d="M18 22.2c-.776 0-1.4.624-1.4 1.4v16.8c0 .776.624 1.4 1.4 1.4s1.4-.624 1.4-1.4l1.4-8.4-1.4-8.4c0-.776-.624-1.4-1.4-1.4m28 0c-.776 0-1.4.624-1.4 1.4L43.2 32l1.4 8.4c0 .776.624 1.4 1.4 1.4s1.4-.624 1.4-1.4V23.6c0-.776-.624-1.4-1.4-1.4"/><rect width="5.6" height="28" x="19.4" y="18" fill="#f7768e" rx="2.1"/><rect width="5.6" height="28" x="-44.6" y="18" fill="#f7768e" rx="2.1" transform="scale(-1 1)"/></svg>