<svg xmlns="http://www.w3.org/2000/svg" width="64" height="64"><g transform="translate(5 5)scale(3.375)"><rect width="16" height="16" fill="#1a1b26" rx="8" ry="8"/><path fill="#7aa2f7" d="M9 8a3 3 0 0 1-3 3 3 3 0 0 1-3-3 3 3 0 0 1 3-3 3 3 0 0 1 3 3"/><path fill="#e0af68" d="M7 8a3 3 0 0 0 3 3 3 3 0 0 0 3-3 3 3 0 0 0-3-3 3 3 0 0 0-3 3"/><path fill="#f7768e" d="M11 8a3 3 0 0 1-3 3 3 3 0 0 1-3-3 3 3 0 0 1 3-3 3 3 0 0 1 3 3"/><path fill="#7dcfff" d="M7 5.18A3 3 0 0 0 5 8a3 3 0 0 0 2.01 2.824A3 3 0 0 0 9 8a3 3 0 0 0-2-2.82"/><path fill="#faba4a" d="M9 5.18A3 3 0 0 0 7 8a3 3 0 0 0 2 2.82A3 3 0 0 0 11 8a3 3 0 0 0-2-2.82"/><path fill="#ff899d" d="M8 5.768A3 3 0 0 0 7 8a3 3 0 0 0 1.002 2.234A3 3 0 0 0 9 8a3 3 0 0 0-1-2.232"/></g></svg>