<svg xmlns="http://www.w3.org/2000/svg" width="64" height="64" viewBox="0 0 16.933 16.933"><g transform="translate(0 -280.07)"><circle cx="8.466" cy="288.53" r="7.144" fill="#414868" style="paint-order:stroke markers fill"/><g stroke-width="1.625" paint-order="markers stroke fill" transform="translate(5.699 111.02)scale(.61538)"><path fill="#7aa2f7" d="M-1.587 284.565h12.17c.44 0 .794.354.794.793v8.467c0 .44-.354.794-.794.794h-12.17a.79.79 0 0 1-.794-.794v-8.467c0-.44.354-.793.794-.793"/><rect width="11.113" height="8.731" x="-1.058" y="282.45" fill="#c0caf5" rx=".775" ry=".794"/><path fill="#7dcfff" d="M11.212 284.878a.8.8 0 0 1 .165.48v8.467c0 .44-.354.794-.794.794h-12.17a.8.8 0 0 1-.53-.206z"/><path fill="#7dcfff" d="M-2.216 284.878a.8.8 0 0 0-.165.48v8.467c0 .44.354.794.794.794h12.17a.8.8 0 0 0 .53-.206z"/></g></g></svg>