<svg xmlns="http://www.w3.org/2000/svg" width="64" height="64" viewBox="0 0 16.933 16.933"><defs><linearGradient id="b" x1="66" x2="44" y1="234" y2="234" gradientTransform="matrix(-1 0 0 1.35264 129.874 -258.048)" gradientUnits="userSpaceOnUse"><stop offset="0" stop-color="#c0caf5"/><stop offset="1" stop-color="#7aa2f7" stop-opacity="0"/></linearGradient><clipPath id="a" clipPathUnits="userSpaceOnUse"><circle cx="59.934" cy="71.997" r="59.516" fill="#c0caf5" style="fill:#7aa2f7;fill-opacity:1;stroke-width:8.33091;paint-order:stroke fill markers"/></clipPath></defs><circle cx="8.466" cy="8.466" r="7.144" fill="#c0caf5" style="paint-order:stroke fill markers;fill:#7aa2f7;fill-opacity:1"/><path d="M4.513 8.947v.6h.6m-.12-.48v.96m.6-1.08h.36v.48h-.36Zm-.24.48h.72v.48h-.72Zm1.2-.48h.48v.48h-.48v.48h.6m.72 0h.24v-.96h-.6v.48h.6" style="fill:none;stroke:#c0caf5;stroke-width:.24007"/><path fill="#8db0ff" d="M3.673 11.587h3.84v.96h-3.84Zm0-.96h2.4v.48h-2.4Zm0 0" style="stroke-width:.120035"/><path fill="#f7768e" d="m4.966 4.462 1.03 1.03a.47.47 0 0 1 0 .667l-1.03 1.03a.47.47 0 0 1-.666 0L3.269 6.16a.47.47 0 0 1 0-.667l1.03-1.03a.47.47 0 0 1 .667 0m0 0"/><path fill="#faba4a" d="m6.647 4.462 1.03 1.03a.47.47 0 0 1 0 .667l-1.03 1.03a.47.47 0 0 1-.667 0L4.95 6.16a.47.47 0 0 1 0-.667l1.03-1.03a.47.47 0 0 1 .667 0m0 0"/><path fill="#e0af68" d="m5.473 4.969-.524.523a.47.47 0 0 0 0 .667l.524.524.524-.524a.47.47 0 0 0 0-.667zm0 0"/><path fill="#c0caf5" d="M9.914 8.467h1.921v1.92h-1.92Zm0 0"/><path fill="#c0caf5" d="M88 72h16v16H88Zm0 0" style="opacity:.8" transform="translate(1.272 -.176)scale(.12003)"/><path fill="#7aa2f7" d="M9.914 10.387h1.921v1.92h-1.92Zm0 0"/><path fill="#8db0ff" d="M11.835 10.387h1.92v1.92h-1.92Zm0 0"/><g clip-path="url(#a)" transform="translate(1.272 -.176)scale(.12003)"><path fill="url(#b)" d="M97.875 12.48h-34v119.032h34zm0 0" style="fill:url(#b);stroke-width:1.16303"/><path fill="#c0caf5" d="M60 131.512 59.875 12.48h8L68 131.512Z" style="fill:#a4daff;fill-opacity:1;stroke-width:1.16303"/><path fill="#c0caf5" d="M62 131.512 61.875 12.48h4L66 131.512Z" style="stroke-width:1.16303"/></g></svg>