<svg xmlns="http://www.w3.org/2000/svg" width="64" height="64"><path fill="#c0caf5" d="M8.953 17.998A27 27 0 0 0 5 32a27 27 0 0 0 27 27 27 27 0 0 0 27-27 27 27 0 0 0-3.943-14.002h-.002z" style="paint-order:stroke fill markers"/><path fill="#414868" d="M32.002 5A27 27 0 0 0 8.954 17.998h46.104A27 27 0 0 0 32.002 4.996z" style="paint-order:stroke markers fill"/><rect width="3.001" height="3.001" x="44.002" y="12" opacity=".35" ry="1.5" style="paint-order:stroke markers fill"/><rect width="3.001" height="3.001" x="38" y="12" opacity=".35" ry="1.5" style="paint-order:stroke markers fill"/><rect width="3.001" height="3.001" x="31.998" y="12" opacity=".35" ry="1.5" style="paint-order:stroke markers fill"/><g stroke-width=".58"><path fill="#f7768e" d="M12 27h3.529l4.118 11.429 4.117-11.43h3.53L21.41 43h-3.529z"/><path fill="#1a1b26" d="m24.942 43 5.882-16h3.53L28.47 43zm11.765 0 5.882-16h3.53l-5.883 16z"/><path fill="#a9b1d6" d="m21.412 43 5.882-16h3.53L24.94 43zm11.765 0 5.882-16h3.53l-5.883 16z"/><path fill="#a9b1d6" d="M36.706 43h-3.53l-5.882-16h3.53zm11.765 0h-3.53L39.06 27h3.53z"/><path fill="#414868" d="m30.824 27 5.882 16h3.53l-5.883-16zm11.765 0 5.882 16h3.53l-5.883-16z"/></g><path fill="#9ece6a" d="M53 38v12.172l-4.586-4.586L47 47l7 7 7-7-1.414-1.414L55 50.172V38z"/></svg>