<svg xmlns="http://www.w3.org/2000/svg" xml:space="preserve" width="64" height="64" viewBox="0 0 16.933 16.933"><rect width="14.287" height="14.287" x="1.323" y="1.323" fill="#15161e" rx="7.144" ry="7.144"/><path fill="#e0af68" d="M1.655 10.602c.742 1.856 4.065 4.091 6.563-.758l2.03.31.827 1.893c-3.698 2.297-9.2 4.085-9.593-2.063z"/><path fill="#faba4a" d="M11.635 12.698a.53.53 0 0 0 .481-.296l1.081-2.188 2.414-.351a.53.53 0 0 0 .293-.905l-1.748-1.702.412-2.405a.53.53 0 0 0-.768-.558l-2.16 1.136-2.16-1.135a.53.53 0 0 0-.769.56l.414 2.403-1.748 1.704a.53.53 0 0 0 .294.904l2.415.35 1.08 2.188a.53.53 0 0 0 .469.295" color="#15161e" style="font-feature-settings:normal;font-variant-alternates:normal;font-variant-caps:normal;font-variant-ligatures:normal;font-variant-numeric:normal;font-variant-position:normal;isolation:auto;mix-blend-mode:normal;shape-padding:0;text-decoration-color:#15161e;text-decoration-line:none;text-decoration-style:solid;text-indent:0;text-orientation:mixed;text-transform:none;white-space:normal"/></svg>