<svg width="64" height="64" xmlns="http://www.w3.org/2000/svg"><circle cx="32" cy="32" r="27" fill="#f38aa8" style="paint-order:stroke fill markers"/><path d="m14.412 45-2.625 4.85A27 27 0 0 0 32 59a27 27 0 0 0 20.217-9.14L49.588 45H14.412z" fill="#f6a7bd"/><path d="M32 7A25 25 0 0 0 9 22.207V25h46v-2.73A25 25 0 0 0 32 7z" fill="#f9c8d6" style="paint-order:markers fill stroke"/><path d="M9 25v14.45C9 40.864 10.028 42 11.307 42h41.386C53.973 42 55 40.864 55 39.45V25zm11 1.5a4.5 4.5 0 0 1 4.5 4.5 4.5 4.5 0 0 1-4.5 4.5 4.5 4.5 0 0 1-4.5-4.5 4.5 4.5 0 0 1 4.5-4.5zm24 0a4.5 4.5 0 0 1 4.5 4.5 4.5 4.5 0 0 1-4.5 4.5 4.5 4.5 0 0 1-4.5-4.5 4.5 4.5 0 0 1 4.5-4.5z" fill="#ffffff" style="paint-order:markers fill stroke"/><circle cx="19.5" cy="49.5" r="2.5" opacity=".4" style="paint-order:markers fill stroke"/><path d="M20 25a6 6 0 0 0-6 6 6 6 0 0 0 6 6h24a6 6 0 0 0 6-6 6 6 0 0 0-6-6zm0 2a4 4 0 0 1 4 4 4 4 0 0 1-4 4 4 4 0 0 1-4-4 4 4 0 0 1 4-4zm24 0a4 4 0 0 1 4 4 4 4 0 0 1-4 4 4 4 0 0 1-4-4 4 4 0 0 1 4-4z" fill="#f38aa8"/><path d="M24.995 27.998h14v6h-14z" fill="#ffffff" style="paint-order:markers fill stroke"/><path d="M25 28v6h5.51a9.58 9.58 0 0 0 .49-3 9.58 9.58 0 0 0-.49-3z" fill="#f7b8ca" style="paint-order:markers fill stroke"/><circle cx="44.5" cy="49.5" r="2.5" opacity=".4" style="paint-order:markers fill stroke"/></svg>