<svg width="32" height="32" version="1" xmlns="http://www.w3.org/2000/svg"><circle cx="16" cy="16" r="14" fill="#f6a7bd" style="paint-order:stroke fill markers"/><circle transform="matrix(0 -1 -1 0 0 0)" cx="-8.222" cy="-23.778" r="1.037" fill="#ffffff"/><circle transform="matrix(0 -1 -1 0 0 0)" cx="-15" cy="-18" r="6" fill="#ffffff"/><circle transform="rotate(-90)" cx="-15" cy="18" r="4" fill="#f8bdce"/><circle transform="matrix(0 -1 -1 0 0 0)" cx="-15" cy="-18" r="2" fill="#ffffff"/><path d="M6.92 6.7A13 13 0 0 0 3 16a13 13 0 0 0 3.92 9.285V6.7z" fill="#f38aa8"/><g stroke-width=".519"><circle cx="11.593" cy="25.593" r=".778" opacity=".5"/><circle cx="14.704" cy="25.593" r=".778" opacity=".5"/><circle cx="17.815" cy="25.593" r=".778" opacity=".5"/><circle cx="20.926" cy="25.593" r=".778" opacity=".5"/><circle cx="13.148" cy="27.667" r=".778" opacity=".5"/><circle cx="16.259" cy="27.667" r=".778" opacity=".5"/><circle cx="19.37" cy="27.667" r=".778" opacity=".5"/></g><circle transform="matrix(0 -1 -1 0 0 0)" cx="-8.222" cy="-23.778" r=".519" fill="#fce7ed"/></svg>