<svg width="32" height="32" version="1" xmlns="http://www.w3.org/2000/svg"><circle cx="16" cy="16" r="14" fill="#cdd6f4" style="paint-order:stroke fill markers"/><g transform="translate(0 -1)"><rect transform="matrix(0 -1 -1 0 0 0)" x="-26" y="-24" width="19" height="16" rx="1.357" ry="1.454" fill="#bac2de"/><path d="M21 7v10c0 2.77-2.23 5-5 5s-5-2.23-5-5V7z" opacity=".5"/><g stroke-width=".333"><circle cx="16" cy="17" r="2" fill="#89b4fa"/><circle cx="16" cy="12" r="1" fill="#f38ba8"/><circle cx="16" cy="9" r="1" fill="#a6e3a1"/></g><path d="M12 25c-.554 0-1 .446-1 1h10c0-.554-.446-1-1-1zM8 19v1h1.5a.499.499 0 1 0 0-1zm0 1.5v1h1.5a.499.499 0 1 0 0-1zM8 22v1h1.5a.499.499 0 1 0 0-1zM24 19v1h-1.5a.499.499 0 1 1 0-1zm0 1.5v1h-1.5a.499.499 0 1 1 0-1zm0 1.5v1h-1.5a.499.499 0 1 1 0-1z" opacity=".35" style="paint-order:stroke fill markers"/></g></svg>