<svg width="32" height="32" version="1.1" xmlns="http://www.w3.org/2000/svg">
 <style id="current-color-scheme" type="text/css">.ColorScheme-Text {
        color:#414868;
      }
      .ColorScheme-Background{
        color:#c0caf5;
      }
      .ColorScheme-Highlight{
        color:#7dcfff;
      }
      .ColorScheme-ViewText {
        color:#a9b1d6;
      }
      .ColorScheme-ViewBackground{
        color:#c0caf5;
      }
      .ColorScheme-ViewHover {
        color:#7dcfff;
      }
      .ColorScheme-ViewFocus{
        color:#7aa2f7;
      }
      .ColorScheme-ButtonText {
        color:#a9b1d6;
      }
      .ColorScheme-ButtonBackground{
        color:#c0caf5;
      }
      .ColorScheme-ButtonHover {
        color:#7dcfff;
      }
      .ColorScheme-ButtonFocus{
        color:#7aa2f7;
      }</style>
 <path d="m4.9999 6c-1.1 0-1.9902 0.9-1.9902 2l-0.00195 4h1.9922v-2h10v-2h-1l-2-2z" fill="#ff899d" opacity=".45"/>
 <path d="m23.5 15.5c-1.939 0-3.5 1.561-3.5 3.5h7c0-1.939-1.561-3.5-3.5-3.5zm0 2c0.831 0 1.5 0.669 1.5 1.5h-3c0-0.831 0.669-1.5 1.5-1.5z" fill="#ff899d" opacity=".45"/>
 <path d="m14 8-2 2h15v5h2v-5c0-1.1-0.9-2-2-2zm-10.992 2-0.00781 14c0 1.1 0.9 2 2 2h11v-2h-11v-14h-1.9922z" fill="#ff899d"/>
 <path d="m19 19h-1v7h11v-7h-1zm6.9999 0h-4.9999zm-5.9999 2h6.9999v3h-6.9999z" fill="#ff899d"/>
</svg>
