<svg width="32" height="32" version="1.1" xmlns="http://www.w3.org/2000/svg">
 <style id="current-color-scheme" type="text/css">.ColorScheme-Text {
        color:#585b6c;
      }
      .ColorScheme-Background{
        color:#c1c2c4;
      }
      .ColorScheme-Highlight{
        color:#29ACCC;
      }
      .ColorScheme-ViewText {
        color:#585b6c;
      }
      .ColorScheme-ViewBackground{
        color:#c1c2c4;
      }
      .ColorScheme-ViewHover {
        color:#29ACCC;
      }
      .ColorScheme-ViewFocus{
        color:#29ACCC;
      }
      .ColorScheme-ButtonText {
        color:#585b6c;
      }
      .ColorScheme-ButtonBackground{
        color:#c1c2c4;
      }
      .ColorScheme-ButtonHover {
        color:#29ACCC;
      }
      .ColorScheme-ButtonFocus{
        color:#29ACCC;
      }</style>
 <g class="ColorScheme-Text" fill="currentColor">
  <path d="m6 5c-1.662 0-3 1.338-3 3v13c0 1.662 1.338 3 3 3h20c1.662 0 3-1.338 3-3v-13c0-1.662-1.338-3-3-3h-20zm0 2h20c0.554 0 1 0.446 1 1v13c0 0.554-0.446 1-1 1h-20c-0.554 0-1-0.446-1-1v-13c0-0.554 0.446-1 1-1z"/>
  <path d="m10 23v2c0 1.662 1.338 3 3 3h6c1.662 0 3-1.338 3-3v-2h-2v2c0 0.554-0.446 1-1 1h-6c-0.554 0-1-0.446-1-1v-2h-2z" opacity=".45"/>
 </g>
</svg>
