<svg xmlns="http://www.w3.org/2000/svg" width="64" height="64" viewBox="0 0 16.933 16.933"><g paint-order="stroke markers fill" transform="translate(0 -280.07)"><circle cx="8.466" cy="288.53" r="7.144" fill="#bac2de"/><circle cx="8.467" cy="288.53" r="4.762" fill="#cdd6f4" opacity=".5"/><circle cx="8.467" cy="288.53" r="3.969" fill="#585b70"/><circle cx="8.467" cy="288.53" r="1.588" fill="#cdd6f4"/></g><g stroke-width=".667" transform="matrix(1.5 0 0 1.5 -6.982 -426.85)"><circle cx="13.121" cy="293.03" r="2.117" fill="#f38ba8"/><path fill="#cdd6f4" d="M13.366 291.973c-.649.264-1.039.885-1.039 1.323 0 .433.341.785.765.793a.393.393 0 0 1-.382-.396c0-.22.194-.53.52-.662 0 .463.348.53.259.794-.05.15-.173.263-.386.264h.004c.43 0 .678-.228.779-.529.178-.527-.52-.661-.52-1.587"/></g></svg>