<svg xmlns="http://www.w3.org/2000/svg" width="64" height="64" image-rendering="optimizeSpeed"><circle cx="32" cy="32" r="27" fill="#f281a1" fill-rule="evenodd" style="paint-order:fill markers stroke"/><g transform="translate(-17.333 -17.333)scale(1.3333)"><rect width="24" height="24" x="25" y="25" fill="#ffffff" ry="2"/><path fill="#fef3f6" d="M27 27h20v7l-10 2-10-2z"/><path fill="#f38eab" d="m27 37 10-2 10 2v6l-10 4h-1l-9-7z"/><path fill="#fce5eb" d="M39 36h6v7l-3 1-3-1z"/><path fill="#ffffff" d="M27 40v7h9v-7zm10 3v4h10v-4z"/><path fill="#ffffff" d="M27 34h20v3H27z"/><path fill="#ffffff" d="M27 28v1h20v-1zm0 2v1h20v-1zm0 2v1h20v-1z" opacity=".1"/><path fill="#ffffff" d="M41 43h2v4h-2z" opacity=".2"/><rect width="8" height="1" x="33" y="35" opacity=".3" ry=".5"/></g></svg>