<svg xmlns="http://www.w3.org/2000/svg" width="64" height="64"><circle cx="32" cy="32" r="27" fill="#f390ac" style="paint-order:stroke fill markers"/><circle cx="32" cy="32" r="24" fill="#ffffff" opacity=".15" style="paint-order:stroke fill markers"/><path fill="#ffffff" d="M9.404 24A24 24 0 0 0 8 32a24 24 0 0 0 24 24 24 24 0 0 0 24-24 24 24 0 0 0-1.4-8H9.405z" style="paint-order:stroke fill markers"/><circle cx="43" cy="15" r="2" fill="#f8bbcc"/><path fill="#ffffff" d="M27 14h10v2H27z"/><path fill="#ffffff" d="M22 27c-2.216 0-4 1.784-4 4v2h2v-2c0-1.108.892-2 2-2h2v-2zm18 0v2h2c1.108 0 2 .892 2 2v2h2v-2c0-2.216-1.784-4-4-4zM18 41v2c0 2.216 1.784 4 4 4h2v-2h-2c-1.108 0-2-.892-2-2v-2zm26 0v2c0 1.108-.892 2-2 2h-2v2h2c2.216 0 4-1.784 4-4v-2z" style="paint-order:stroke fill markers"/></svg>