<svg xmlns="http://www.w3.org/2000/svg" width="64" height="64"><circle cx="32" cy="32" r="27" fill="#a6e3a1" style="paint-order:stroke fill markers"/><g fill-rule="evenodd"><path fill="#f9e2af" d="m48 49-2 2h2z"/><rect width="40" height="28" x="12" y="18" fill="#1e1e2e" rx="2" ry="2"/><path fill="#cdd6f4" d="M14 20v24h36V20z" opacity=".15"/><path fill="#bac2de" d="M18 36.96h10v1H18zm12 0h8v1h-8zm-12 1.95h9v1h-9zm11 0h4v1h-4zm-11 2.08h5v1h-5zm7 0h10v1H25zm-7-5.98h7v1h-7zm9 0h9v1h-9z"/><path fill="#bac2de" d="M18 24.03h13v1H18zm15 0h6v1h-6zm-15 1.95h9v1h-9zm11 0h5v1h-5z"/><g fill="#f9e2af" transform="translate(7 -3)"><rect width="1" height="1" x="12" y="52" opacity=".6" ry="0" style="paint-order:normal"/><rect width="1" height="1" x="14" y="52" opacity=".6" ry="0" style="paint-order:normal"/><rect width="1" height="1" x="16" y="52" opacity=".6" ry="0" style="paint-order:normal"/><rect width="1" height="1" x="18" y="52" opacity=".6" ry="0" style="paint-order:normal"/><rect width="1" height="1" x="20" y="52" opacity=".6" ry="0" style="paint-order:normal"/><rect width="1" height="1" x="22" y="52" opacity=".6" ry="0" style="paint-order:normal"/><rect width="1" height="1" x="24" y="52" opacity=".6" ry="0" style="paint-order:normal"/><rect width="1" height="1" x="26" y="52" opacity=".6" ry="0" style="paint-order:normal"/><rect width="1" height="1" x="28" y="52" opacity=".6" ry="0" style="paint-order:normal"/><rect width="1" height="1" x="30" y="52" opacity=".6" ry="0" style="paint-order:normal"/><rect width="1" height="1" x="13" y="53" opacity=".6" ry="0" style="paint-order:normal"/><rect width="1" height="1" x="15" y="53" opacity=".6" ry="0" style="paint-order:normal"/><rect width="1" height="1" x="17" y="53" opacity=".6" ry="0" style="paint-order:normal"/><rect width="1" height="1" x="19" y="53" opacity=".6" ry="0" style="paint-order:normal"/><rect width="1" height="1" x="21" y="53" opacity=".6" ry="0" style="paint-order:normal"/><rect width="1" height="1" x="23" y="53" opacity=".6" ry="0" style="paint-order:normal"/><rect width="1" height="1" x="25" y="53" opacity=".6" ry="0" style="paint-order:normal"/><rect width="1" height="1" x="27" y="53" opacity=".6" ry="0" style="paint-order:normal"/><rect width="1" height="1" x="29" y="53" opacity=".6" ry="0" style="paint-order:normal"/><rect width="1" height="1" x="31" y="53" opacity=".6" ry="0" style="paint-order:normal"/></g><g fill="#f9e2af" transform="rotate(90 49 59)"><rect width="1" height="1" x="12" y="52" opacity=".6" ry="0" style="paint-order:normal"/><rect width="1" height="1" x="14" y="52" opacity=".6" ry="0" style="paint-order:normal"/><rect width="1" height="1" x="16" y="52" opacity=".6" ry="0" style="paint-order:normal"/><rect width="1" height="1" x="18" y="52" opacity=".6" ry="0" style="paint-order:normal"/><rect width="1" height="1" x="20" y="52" opacity=".6" ry="0" style="paint-order:normal"/><rect width="1" height="1" x="22" y="52" opacity=".6" ry="0" style="paint-order:normal"/><rect width="1" height="1" x="24" y="52" opacity=".6" ry="0" style="paint-order:normal"/><rect width="1" height="1" x="26" y="52" opacity=".6" ry="0" style="paint-order:normal"/><rect width="1" height="1" x="28" y="52" opacity=".6" ry="0" style="paint-order:normal"/><rect width="1" height="1" x="30" y="52" opacity=".6" ry="0" style="paint-order:normal"/><rect width="1" height="1" x="13" y="53" opacity=".6" ry="0" style="paint-order:normal"/><rect width="1" height="1" x="15" y="53" opacity=".6" ry="0" style="paint-order:normal"/><rect width="1" height="1" x="17" y="53" opacity=".6" ry="0" style="paint-order:normal"/><rect width="1" height="1" x="19" y="53" opacity=".6" ry="0" style="paint-order:normal"/><rect width="1" height="1" x="21" y="53" opacity=".6" ry="0" style="paint-order:normal"/><rect width="1" height="1" x="23" y="53" opacity=".6" ry="0" style="paint-order:normal"/><rect width="1" height="1" x="25" y="53" opacity=".6" ry="0" style="paint-order:normal"/><rect width="1" height="1" x="27" y="53" opacity=".6" ry="0" style="paint-order:normal"/><rect width="1" height="1" x="29" y="53" opacity=".6" ry="0" style="paint-order:normal"/><rect width="1" height="1" x="31" y="53" opacity=".6" ry="0" style="paint-order:normal"/></g><circle cx="9.5" cy="22.5" r="1.5" fill="#f9e2af" style="paint-order:normal"/><circle cx="9.5" cy="22.5" r=".5" fill="#1e1e2e" style="paint-order:normal"/><circle cx="9.5" cy="39.5" r="1.5" fill="#f9e2af" style="paint-order:normal"/><circle cx="9.5" cy="39.5" r=".5" fill="#1e1e2e" style="paint-order:normal"/><g fill="#f9e2af" transform="translate(7 -39)"><rect width="1" height="1" x="12" y="52" opacity=".6" ry="0" style="paint-order:normal"/><rect width="1" height="1" x="14" y="52" opacity=".6" ry="0" style="paint-order:normal"/><rect width="1" height="1" x="16" y="52" opacity=".6" ry="0" style="paint-order:normal"/><rect width="1" height="1" x="18" y="52" opacity=".6" ry="0" style="paint-order:normal"/><rect width="1" height="1" x="20" y="52" opacity=".6" ry="0" style="paint-order:normal"/><rect width="1" height="1" x="22" y="52" opacity=".6" ry="0" style="paint-order:normal"/><rect width="1" height="1" x="24" y="52" opacity=".6" ry="0" style="paint-order:normal"/><rect width="1" height="1" x="26" y="52" opacity=".6" ry="0" style="paint-order:normal"/><rect width="1" height="1" x="28" y="52" opacity=".6" ry="0" style="paint-order:normal"/><rect width="1" height="1" x="30" y="52" opacity=".6" ry="0" style="paint-order:normal"/><rect width="1" height="1" x="13" y="53" opacity=".6" ry="0" style="paint-order:normal"/><rect width="1" height="1" x="15" y="53" opacity=".6" ry="0" style="paint-order:normal"/><rect width="1" height="1" x="17" y="53" opacity=".6" ry="0" style="paint-order:normal"/><rect width="1" height="1" x="19" y="53" opacity=".6" ry="0" style="paint-order:normal"/><rect width="1" height="1" x="21" y="53" opacity=".6" ry="0" style="paint-order:normal"/><rect width="1" height="1" x="23" y="53" opacity=".6" ry="0" style="paint-order:normal"/><rect width="1" height="1" x="25" y="53" opacity=".6" ry="0" style="paint-order:normal"/><rect width="1" height="1" x="27" y="53" opacity=".6" ry="0" style="paint-order:normal"/><rect width="1" height="1" x="29" y="53" opacity=".6" ry="0" style="paint-order:normal"/><rect width="1" height="1" x="31" y="53" opacity=".6" ry="0" style="paint-order:normal"/></g></g></svg>