<svg xmlns="http://www.w3.org/2000/svg" width="64" height="64"><circle cx="31.998" cy="31.998" r="27.001" fill="#ffffff"/><g stroke-width=".5" transform="translate(14 14)"><rect width="7" height="7" x="14.5" y="25" fill="#ffffff" rx="1.05" ry="1.05"/><rect width="7" height="7" x="4" y="14.5" fill="#ffffff" rx="1.05" ry="1.05"/><rect width="7" height="7" x="14.5" y="14.5" fill="#ffffff" rx="1.05" ry="1.05"/><rect width="7" height="7" x="25" y="14.5" fill="#ffffff" rx="1.05" ry="1.05"/><rect width="7" height="7" x="4" y="4" fill="#ffffff" rx="1.05" ry="1.05"/><rect width="7" height="7" x="14.5" y="4" fill="#ffffff" rx="1.05" ry="1.05"/><rect width="7" height="7" x="25" y="4" fill="#ffffff" rx="1.05" ry="1.05"/><rect width="7" height="7" x="4" y="25" fill="#ffffff" rx="1.05" ry="1.05"/><rect width="7" height="7" x="25" y="25" fill="#ffffff" rx="1.05" ry="1.05"/></g></svg>