<svg xmlns="http://www.w3.org/2000/svg" width="64" height="64"><path fill="#ffffff" d="M32 5c14.912 0 27 12.088 27 27S46.911 59 32 59 5 46.911 5 32 17.088 5 32 5"/><path fill="#fce7ed" d="M32 14.391c-9.65 0-17.61 7.869-17.61 17.609h4.66c0-7.067 5.708-12.803 12.948-12.803"/><path fill="#f7b8ca" d="M32 14.391v4.806c7.24 0 12.948 5.737 12.948 12.803h4.659c0-9.74-7.96-17.609-17.608-17.609"/><path fill="#f9c6d4" d="M44.948 32c0 7.067-5.709 12.802-12.948 12.802v4.802c9.643 0 17.604-7.87 17.604-17.604"/><path fill="#ffffff" d="M14.391 32c0 9.74 7.96 17.608 17.609 17.608v-4.806c-7.24 0-12.948-5.737-12.948-12.802"/></svg>