<svg xmlns="http://www.w3.org/2000/svg" width="64" height="64"><g stroke-width=".741" transform="translate(-.4 -22)scale(1.35)"><circle cx="24" cy="40" r="20" fill="#ffffff"/><path fill="#fce3ea" d="M7 33h3l3.5 10L17 33h3l-5 14h-3z"/><path fill="#f38aa8" d="m18 47 5-14h3l-5 14zm10 0 5-14h3l-5 14z"/><path fill="#ffffff" d="m15 47 5-14h3l-5 14zm10 0 5-14h3l-5 14z"/><path fill="#ffffff" d="M28 47h-3l-5-14h3zm10 0h-3l-5-14h3z"/><path fill="#f6a7bd" d="m23 33 5 14h3l-5-14zm10 0 5 14h3l-5-14z"/></g></svg>