<svg width="32" height="32" version="1" xmlns="http://www.w3.org/2000/svg"><circle cx="16.001" cy="16.001" r="14" fill="#f5a4bb" style="paint-order:stroke markers fill"/><g fill="#ffffff" stroke-width=".928"><rect x="9" y="7" width="4" height="4" rx=".5" ry=".5"/><rect x="14" y="7" width="4" height="4" rx=".5" ry=".5"/><rect x="19" y="7" width="4" height="4" rx=".5" ry=".5"/><rect x="9" y="12" width="4" height="4" rx=".5" ry=".5"/><rect x="14" y="12" width="4" height="4" rx=".5" ry=".5"/><rect x="19" y="12" width="4" height="4" rx=".5" ry=".5"/></g><g stroke-width=".928"><rect x="9" y="22" width="4" height="4" rx=".5" ry=".5" fill="#ffffff"/><rect x="14" y="22" width="4" height="4" rx=".5" ry=".5" fill="#ffffff"/><rect x="19" y="22" width="4" height="4" rx=".5" ry=".5" fill="#fef9fa"/></g><g fill="#ffffff" stroke-width=".928"><rect x="9" y="17" width="4" height="4" rx=".5" ry=".5"/><rect x="14" y="17" width="4" height="4" rx=".5" ry=".5"/><rect x="19" y="17" width="4" height="4" rx=".5" ry=".5"/></g></svg>