<svg width="32" height="32" version="1" xmlns="http://www.w3.org/2000/svg"><circle cx="16" cy="16" r="14" fill="#f07598" style="paint-order:stroke fill markers"/><rect transform="rotate(90)" x="5" y="-21" width="22" height="10" rx="1" ry="1" fill="#ffffff"/><g fill="#ffffff" stroke-width=".333" transform="rotate(90)"><circle cx="24" cy="-18" r="1"/><circle cx="20" cy="-18" r="1"/><circle cx="24" cy="-14" r="1"/></g><circle transform="rotate(90)" cx="20" cy="-14" r="1" fill="#fdf0f4"/><path d="M15.5 7c-.277 0-.5.223-.5.5V9h-1.5c-.277 0-.5.223-.5.5v1c0 .277.223.5.5.5H15v1.5c0 .277.223.5.5.5h1c.277 0 .5-.223.5-.5V11h1.5c.277 0 .5-.223.5-.5v-1c0-.277-.223-.5-.5-.5H17V7.5c0-.277-.223-.5-.5-.5z" fill="#fad1dd" style="paint-order:stroke fill markers"/></svg>