<svg xmlns="http://www.w3.org/2000/svg" width="64" height="64"><circle cx="32" cy="32" r="27" fill="#c1c2c4"/><g transform="translate(9.846 9.846)scale(.69231)"><g fill="#585b6c" transform="translate(2)"><rect width="52" height="31.778" x="4" y="24.778" rx="4" ry="3.972"/><rect width="52" height="17.333" x="4" y="7.444" rx="4" ry="3.852"/></g><path fill="#c1c2c4" d="M20.444 29.111A11.556 11.556 0 0 0 8.888 40.667a11.556 11.556 0 0 0 11.556 11.556A11.556 11.556 0 0 0 32 40.667a11.556 11.556 0 0 0-11.556-11.556m0 6.74a4.815 4.815 0 0 1 4.815 4.816 4.815 4.815 0 0 1-4.815 4.814 4.815 4.815 0 0 1-4.815-4.815 4.815 4.815 0 0 1 4.815-4.814z"/><rect width="48" height="14" x="8" y="9" fill="#c1c2c4" rx="2" ry="2"/><circle cx="14.667" cy="16.111" r="2.889" fill="#585b6c"/><rect width="5.778" height="5.778" x="45" y="13.222" fill="#585b6c" rx="2.889" ry="2.889"/><rect width="2.889" height="2.889" x="46.444" y="14.667" fill="#c1c2c4" rx="1.444" ry="1.444"/><circle cx="21.889" cy="16.111" r="2.889" fill="#585b6c"/><circle cx="29.111" cy="16.111" r="2.889" fill="#585b6c"/><path fill="#c1c2c4" d="M43.556 29.111A11.556 11.556 0 0 0 32 40.667a11.556 11.556 0 0 0 11.556 11.556 11.556 11.556 0 0 0 11.556-11.556 11.556 11.556 0 0 0-11.556-11.556m0 6.74a4.815 4.815 0 0 1 4.815 4.816 4.815 4.815 0 0 1-4.815 4.814 4.815 4.815 0 0 1-4.815-4.815 4.815 4.815 0 0 1 4.815-4.814z"/></g></svg>