<svg xmlns="http://www.w3.org/2000/svg" width="64" height="64"><circle cx="32" cy="32" r="27" fill="#585b6c" style="paint-order:stroke fill markers"/><circle cx="32" cy="32" r="24" fill="#c1c2c4" style="paint-order:stroke fill markers"/><path fill="#EA58B4" d="M17 13.271a24 24 0 0 0-1 .879v35.703a24 24 0 0 0 1 .853V13.27z" opacity=".4"/><path fill="#096B94" d="M15.078 15a24 24 0 0 0-.932 1H49.85a24 24 0 0 0-.933-1z" opacity=".4"/><path fill="#c1c2c4" d="M21.2 18.5v2.7h.01l6.2 10.731-6.21 10.753V45.5h21.6v-5.4h-2.7v2.7H24.254l6.272-10.867v-.003L24.33 21.2H37.4v1.35h2.7V18.5H22.773z"/></svg>