<svg xmlns="http://www.w3.org/2000/svg" width="64" height="64"><circle cx="32" cy="32" r="27" fill="#29ACCC" style="paint-order:stroke fill markers"/><path fill="#c1c2c4" d="M24 51h16v2H24z"/><rect width="45" height="10" x="15" y="39" fill="#c1c2c4" rx="2" ry="2"/><g fill="#c1c2c4" transform="translate(0 -1058.5)"><rect width="8.981" height="2" x="20" y="1071.5" ry="0"/><path d="M15.989 1077.5h30.934v2H15.989zm0 4h26.943v2H15.989zm0 4h29.936v2H15.989zm0 4H38.94v2H15.989zm0 4h27.94v2h-27.94z"/></g><path fill="#c1c2c4" d="M17.985 44.9v3h.998v-3zm5.987 0v3h.998v-3zm5.987 0v3h.998v-3zm5.988 0v3h.997v-3zm5.987 0v3h.998v-3zm5.987 0v3h.998v-3zm5.987 0v3h.998v-3zm-32.93 1v2h.998v-2zm5.987 0v2h.998v-2zm5.988 0v2h.997v-2zm5.987 0v2h.998v-2zm5.987 0v2h.998v-2zm5.987 0v2h.998v-2z"/><path fill="#585b6c" fill-rule="evenodd" d="M39.002 54v-8h-1.996L40 42l2.994 4h-1.996v8z"/><path fill="#585b6c" d="M40 57a1.996 2 0 0 1-1.996-2A1.996 2 0 0 1 40 53a1.996 2 0 0 1 1.996 2A1.996 2 0 0 1 40 57m0-1a.998 1 0 0 0 .998-1A.998 1 0 0 0 40 54a.998 1 0 0 0-.998 1A.998 1 0 0 0 40 56"/></svg>