<svg xmlns="http://www.w3.org/2000/svg" xmlns:xlink="http://www.w3.org/1999/xlink" width="64" height="64"><defs><linearGradient id="c"><stop offset="0" stop-color="#c0caf5"/><stop offset="1" stop-color="#c0caf5"/></linearGradient><linearGradient id="b"><stop offset="0" stop-color="#c0caf5"/><stop offset="1" stop-color="#c0caf5"/></linearGradient><linearGradient id="a"><stop offset="0"/><stop offset="1" stop-opacity="0"/></linearGradient><linearGradient xlink:href="#a" id="d" x1="11" y1="32" x2="53" y2="32" gradientUnits="userSpaceOnUse"/><linearGradient xlink:href="#b" id="e" x1="11" y1="32" x2="32" y2="32" gradientUnits="userSpaceOnUse"/><linearGradient xlink:href="#c" id="f" gradientUnits="userSpaceOnUse" x1="11" y1="32" x2="11" y2="11"/></defs><circle cx="32" cy="32" r="26" fill="#c0caf5" stroke="#15161e" stroke-width="1.857" stroke-opacity=".039" paint-order="stroke markers fill"/><path fill="#1a1b26" paint-order="stroke markers fill" d="M31 16h2v16h-2z"/><path fill="#f7768e" paint-order="stroke markers fill" d="m32.707 32 15.557 15.556-.708.708L32 32.707z"/><circle cx="32" cy="32" fill="#1a1b26" paint-order="stroke markers fill" r="1"/><path d="M32 11a21 21 0 0 0-21 21 21 21 0 0 0 21 21 21 21 0 0 0 21-21h-2a19 19 0 0 1-19 19 19 19 0 0 1-19-19 19 19 0 0 1 19-19v-2z" opacity=".1" fill="url(#d)" paint-order="stroke markers fill"/><path d="m32 9 5 3-5 3z" fill="#c0caf5" paint-order="markers stroke fill"/><path d="M32 11a21 21 0 0 0-21 21 21 21 0 0 0 21 21v-2a19 19 0 0 1-19-19 19 19 0 0 1 19-19v-2z" fill="url(#e)" paint-order="stroke markers fill"/><path d="M32 11a21 21 0 0 0-21 21h2a19 19 0 0 1 19-19v-2z" fill="url(#f)" paint-order="stroke markers fill"/></svg>