<svg width="32" height="32" version="1.1" xmlns="http://www.w3.org/2000/svg">
 <style id="current-color-scheme" type="text/css">.ColorScheme-Text {
        color:#585b70;
      }
      .ColorScheme-Background{
        color:#cdd6f4;
      }
      .ColorScheme-Highlight{
        color:#89b4fa;
      }
      .ColorScheme-ViewText {
        color:#585b70;
      }
      .ColorScheme-ViewBackground{
        color:#cdd6f4;
      }
      .ColorScheme-ViewHover {
        color:#89b4fa;
      }
      .ColorScheme-ViewFocus{
        color:#89b4fa;
      }
      .ColorScheme-ButtonText {
        color:#585b70;
      }
      .ColorScheme-ButtonBackground{
        color:#cdd6f4;
      }
      .ColorScheme-ButtonHover {
        color:#89b4fa;
      }
      .ColorScheme-ButtonFocus{
        color:#89b4fa;
      }</style>
 <g class="ColorScheme-Text" transform="translate(0,44)" fill="currentColor">
  <path d="m6-39c-1.662 0-3 1.338-3 3v13c0 1.662 1.338 3 3 3h20c1.662 0 3-1.338 3-3v-13c0-1.662-1.338-3-3-3zm0 2h20c0.554 0 1 0.446 1 1v13c0 0.554-0.446 1-1 1h-20c-0.554 0-1-0.446-1-1v-13c0-0.554 0.446-1 1-1z"/>
  <rect x="11" y="-18" width="10" height="2" rx="1" ry="1" opacity=".45"/>
  <path d="m21-35c-0.554 0-1 0.446-1 1s0.446 1 1 1h2v2c0 0.554 0.446 1 1 1s1-0.446 1-1v-3c0-0.554-0.446-1-1-1zm-13 6c-0.554 0-1 0.446-1 1v3c0 0.554 0.446 1 1 1h3c0.554 0 1-0.446 1-1s-0.446-1-1-1h-2v-2c0-0.554-0.446-1-1-1z" opacity=".45"/>
 </g>
</svg>
