<svg xmlns="http://www.w3.org/2000/svg" width="32" height="34"><g transform="translate(-251 -688.362)"><path d="M21 585.362h32v34H21z" style="fill:none" transform="translate(230 103)"/><circle cx="267" cy="705.362" r="10" style="opacity:.15;fill:#c0caf5;fill-opacity:1;stroke-width:10;stroke-linecap:round;stroke-linejoin:round;paint-order:stroke fill markers"/><path d="M267 699.362a6 6 0 0 0-6 6 6 6 0 0 0 6 6 6 6 0 0 0 6-6 6 6 0 0 0-6-6m0 1a5 5 0 0 1 5 5 5 5 0 0 1-5 5 5 5 0 0 1-5-5 5 5 0 0 1 5-5" style="opacity:.75;fill:#c0caf5"/></g></svg>