<svg xmlns="http://www.w3.org/2000/svg" width="64" height="64">
 <defs>
  <style id="current-color-scheme" type="text/css">
   .ColorScheme-Text { color:#868d80; } .ColorScheme-Highlight { color:#a7c080; }
  </style>
 </defs>
<circle cx="32" cy="32" r="28" style="fill:currentColor" class="ColorScheme-Highlight"/><rect width="14" height="14" x="16" y="16" fill="#d8caac" rx="2" ry="2"/><path fill="#d8caac" d="M36 16c-1.108 0-2 .892-2 2v10c0 1.108.892 2 2 2h10c1.108 0 2-.892 2-2V18c0-1.108-.892-2-2-2zm0 18c-1.108 0-2 .892-2 2v10c0 1.108.892 2 2 2h10c1.108 0 2-.892 2-2V36c0-1.108-.892-2-2-2zm-18 0c-1.108 0-2 .892-2 2v10c0 1.108.892 2 2 2h10c1.108 0 2-.892 2-2V36c0-1.108-.892-2-2-2z" opacity=".45"/></svg>
