<svg xmlns="http://www.w3.org/2000/svg" width="24" height="24" version="1.1">
 <defs>
  <style id="current-color-scheme" type="text/css">
   .ColorScheme-Text { color:#414868; } .ColorScheme-Highlight { color:#7aa2f7; } .ColorScheme-NeutralText { color:#faba4a; } .ColorScheme-PositiveText { color:#9ece6a; } .ColorScheme-NegativeText { color:#f7768e; }
  </style>
 </defs>
 <path style="fill:currentColor" class="ColorScheme-Text" d="M 10,5 A 2,2 0 0 0 8,7 2,2 0 0 0 10,9 2,2 0 0 0 12,7 2,2 0 0 0 10,5 Z m 0,5 a 2,2 0 0 0 -2,2 2,2 0 0 0 2,2 2,2 0 0 0 2,-2 2,2 0 0 0 -2,-2 z m 5,0 a 2,2 0 0 0 -2,2 2,2 0 0 0 2,2 2,2 0 0 0 2,-2 2,2 0 0 0 -2,-2 z m -5,5 a 2,2 0 0 0 -2,2 2,2 0 0 0 2,2 2,2 0 0 0 2,-2 2,2 0 0 0 -2,-2 z"/>
</svg>
