<svg width="64" height="64" version="1" xmlns="http://www.w3.org/2000/svg"><circle cx="32" cy="32" r="27" fill="#414868" style="paint-order:stroke fill markers"/><circle transform="matrix(0 -1 -1 0 0 0)" cx="-17" cy="-47" r="2" fill="#c0caf5"/><circle transform="matrix(0 -1 -1 0 0 0)" cx="-30.5" cy="-35.5" r="11.5" fill="#c0caf5"/><circle transform="rotate(-90)" cx="-30.5" cy="35.5" r="8.5" fill="#414868"/><circle transform="matrix(0 -1 -1 0 0 0)" cx="-30.5" cy="-35.5" r="4.5" fill="#7dcfff"/><path d="M15 13.699A25 25 0 0 0 7 32a25 25 0 0 0 8 18.287V13.699z" fill="#1a1b26"/><circle cx="23.5" cy="50.5" r="1.5" opacity=".5"/><circle cx="29.5" cy="50.5" r="1.5" opacity=".5"/><circle cx="35.5" cy="50.5" r="1.5" opacity=".5"/><circle cx="41.5" cy="50.5" r="1.5" opacity=".5"/><circle cx="26.5" cy="54.5" r="1.5" opacity=".5"/><circle cx="32.5" cy="54.5" r="1.5" opacity=".5"/><circle cx="38.5" cy="54.5" r="1.5" opacity=".5"/><circle transform="matrix(0 -1 -1 0 0 0)" cx="-17" cy="-47" r="1" fill="#f7768e"/></svg>