<svg width="64" height="64" version="1" xmlns="http://www.w3.org/2000/svg"><circle cx="32" cy="32" r="27" fill="#c0caf5" style="paint-order:stroke fill markers"/><rect transform="matrix(0 -1 -1 0 0 0)" x="-51" y="-48" width="38" height="32" rx="2.714" ry="2.909" fill="#a9b1d6"/><path d="M42 13v20c0 5.54-4.46 10-10 10s-10-4.46-10-10V13z" opacity=".5"/><g stroke-width=".667"><circle cx="32" cy="34" r="4" fill="#7aa2f7"/><circle cx="32" cy="24" r="2" fill="#f7768e"/><circle cx="32" cy="18" r="2" fill="#9fe044"/></g><path d="M24 49c-1.108 0-2 .892-2 2h20c0-1.108-.892-2-2-2H24zM16 39v2h3c.554 0 1-.446 1-1s-.446-1-1-1h-3zm0 3v2h3c.554 0 1-.446 1-1s-.446-1-1-1h-3zm0 3v2h3c.554 0 1-.446 1-1s-.446-1-1-1h-3zM48 39v2h-3c-.554 0-1-.446-1-1s.446-1 1-1zm0 3v2h-3c-.554 0-1-.446-1-1s.446-1 1-1zm0 3v2h-3c-.554 0-1-.446-1-1s.446-1 1-1z" opacity=".35" style="paint-order:stroke fill markers"/></svg>