<svg xmlns="http://www.w3.org/2000/svg" width="64" height="64"><g transform="translate(5 5)scale(3.375)"><rect width="16" height="16" fill="#585b6c" rx="8" ry="8"/><path fill="#096B94" d="M9 8a3 3 0 0 1-3 3 3 3 0 0 1-3-3 3 3 0 0 1 3-3 3 3 0 0 1 3 3"/><path fill="#c1c2c4" d="M7 8a3 3 0 0 0 3 3 3 3 0 0 0 3-3 3 3 0 0 0-3-3 3 3 0 0 0-3 3"/><path fill="#EA58B4" d="M11 8a3 3 0 0 1-3 3 3 3 0 0 1-3-3 3 3 0 0 1 3-3 3 3 0 0 1 3 3"/><path fill="#29ACCC" d="M7 5.18A3 3 0 0 0 5 8a3 3 0 0 0 2.01 2.824A3 3 0 0 0 9 8a3 3 0 0 0-2-2.82"/><path fill="#c1c2c4" d="M9 5.18A3 3 0 0 0 7 8a3 3 0 0 0 2 2.82A3 3 0 0 0 11 8a3 3 0 0 0-2-2.82"/><path fill="#EA58B4" d="M8 5.768A3 3 0 0 0 7 8a3 3 0 0 0 1.002 2.234A3 3 0 0 0 9 8a3 3 0 0 0-1-2.232"/></g></svg>