<svg xmlns="http://www.w3.org/2000/svg" width="64" height="64"><circle cx="32" cy="32" r="27" fill="#585b6c" style="paint-order:stroke fill markers"/><path fill="#CA4AA7" d="M32 8A24 24 0 0 0 8 32a24 24 0 0 0 9.348 18.971H46.68A24 24 0 0 0 56 32 24 24 0 0 0 32 8"/><g fill-rule="evenodd"><path fill="#EA58B4" d="M32 8.004a24 24 0 0 0-24 24 24 24 0 0 0 3.28 12.05L33.524 8.08A24 24 0 0 0 32 8.004"/><path fill="#614D93" d="m53.166 20.729-39.961 26.2a24 24 0 0 0 7.533 6.255l15.416 2.455A24 24 0 0 0 56 32.004a24 24 0 0 0-2.834-11.275"/><path fill="#29ACCC" d="m53.977 41.617-38.553 7.705A24 24 0 0 0 32 56.004a24 24 0 0 0 21.977-14.387"/></g></svg>