<svg xmlns="http://www.w3.org/2000/svg" width="64" height="64"><circle cx="32" cy="32" r="27" fill="#c1c2c4"/><path fill="#c1c2c4" d="M32 10a17.94 17.94 0 0 0-12.727 5.273l8.102 8.102A6.55 6.55 0 0 1 32 21.455z"/><path fill="#c1c2c4" d="M32 10v11.455a6.55 6.55 0 0 1 4.625 1.92l8.102-8.101A17.94 17.94 0 0 0 32 10"/><path fill="#CA4AA7" d="m27.375 32.625-8.102 8.102A17.94 17.94 0 0 0 32 46v-2h-6.545l3.89-10.023a6.6 6.6 0 0 1-1.97-1.352"/><path fill="#614D93" d="M36.625 32.625a6.5 6.5 0 0 1-1.969 1.349L38.546 44H32v2c4.607 0 9.212-1.759 12.727-5.274z"/><path fill="#29ACCC" d="m44.727 15.273-8.102 8.102A6.55 6.55 0 0 1 38.545 28h11.456c0-4.607-1.759-9.212-5.274-12.727"/><path fill="#29ACCC" d="M38.545 28a6.55 6.55 0 0 1-1.92 4.625l8.101 8.102A17.94 17.94 0 0 0 50 28z"/><path fill="#c1c2c4" d="M19.273 15.273A17.94 17.94 0 0 0 14 28h11.455a6.55 6.55 0 0 1 1.92-4.625z"/><path fill="#EA58B4" d="M14 28c0 4.607 1.759 9.212 5.273 12.727l8.102-8.102a6.55 6.55 0 0 1-1.92-4.624z"/><path fill="#585b6c" d="M26 43c-.554 0-1 .446-1 1s.446 1 1 1c-.554 0-1 .446-1 1s.446 1 1 1c-.554 0-1 .446-1 1s.446 1 1 1c-.554 0-1 .446-1 1s.446 1 1 1h3v1c0 1.662 1.338 3 3 3s3-1.338 3-3v-1h3c.554 0 1-.446 1-1s-.446-1-1-1c.554 0 1-.446 1-1s-.446-1-1-1c.554 0 1-.446 1-1s-.446-1-1-1c.554 0 1-.446 1-1s-.446-1-1-1z"/></svg>