<svg xmlns="http://www.w3.org/2000/svg" width="64" height="64"><rect width="54" height="54" x="5" y="5" fill="#c1c2c4" ry="27"/><path d="M32 8c13.296 0 24 10.704 24 24S45.296 56 32 56 8 45.296 8 32 18.704 8 32 8" opacity=".15"/><path fill="#585b6c" d="M36 36 18 46l10-18z"/><path fill="#981C71" d="m28 28 18-10-10 18z"/><path fill="#585b6c" d="M33 12h-2V8h2z"/><path fill="#c1c2c4" d="M34 32a2 2 0 0 1-2 2 2 2 0 0 1-2-2 2 2 0 0 1 2-2 2 2 0 0 1 2 2"/><path fill="#c1c2c4" d="M33 32a1 1 0 0 1-1 1 1 1 0 0 1-1-1 1 1 0 0 1 1-1 1 1 0 0 1 1 1"/><path fill="#585b6c" d="M12 31v2H8v-2zm44 0v2h-4v-2zM33 56h-2v-4h2z"/></svg>