<svg width="22" height="22" version="1.1" viewBox="0 0 22 22" xmlns="http://www.w3.org/2000/svg">
 <defs>
  <style id="current-color-scheme" type="text/css">.ColorScheme-Text {
        color:#c0caf5;
      }
      .ColorScheme-Background {
        color:#c0caf5;
      }
      .ColorScheme-Highlight {
        color:#7dcfff;
      }
      .ColorScheme-ViewText {
        color:#1a1b26;
      }
      .ColorScheme-ViewBackground {
        color:#c0caf5;
      }
      .ColorScheme-ViewHover {
        color:#a4daff;
      }
      .ColorScheme-ViewFocus{
        color:#7dcfff;
      }
      .ColorScheme-ButtonText {
        color:#1a1b26;
      }
      .ColorScheme-ButtonBackground {
        color:#c0caf5;
      }
      .ColorScheme-ButtonHover {
        color:#a4daff;
      }
      .ColorScheme-ButtonFocus{
        color:#7dcfff;
      }</style>
 </defs>
 <g class="ColorScheme-Text" transform="translate(-47.273 -5)" fill="currentColor">
  <path d="m58.273 6c-1.1046 0-2 0.89543-2 2h-3c-1.662 0-3 1.338-3 3v10c0 1.662 1.338 3 3 3h10c1.662 0 3-1.338 3-3v-10c0-1.662-1.338-3-3-3h-3c0-1.1046-0.89543-2-2-2zm0 1c0.55228 0 1 0.44772 1 1s-0.44772 1-1 1-1-0.44772-1-1 0.44772-1 1-1zm-5 3h10c0.554 0 1 0.446 1 1v10c0 0.554-0.446 1-1 1h-10c-0.554 0-1-0.446-1-1v-10c0-0.554 0.446-1 1-1z"/>
  <path d="m54.773 12c-0.277 0-0.5 0.223-0.5 0.5s0.223 0.5 0.5 0.5h3c0.277 0 0.5-0.223 0.5-0.5s-0.223-0.5-0.5-0.5zm0 3c-0.277 0-0.5 0.223-0.5 0.5s0.223 0.5 0.5 0.5h6c0.277 0 0.5-0.223 0.5-0.5s-0.223-0.5-0.5-0.5zm0 3c-0.277 0-0.5 0.223-0.5 0.5s0.223 0.5 0.5 0.5h5c0.277 0 0.5-0.223 0.5-0.5s-0.223-0.5-0.5-0.5z" opacity=".45"/>
 </g>
</svg>
