<svg width="24" height="24" version="1.1" xmlns="http://www.w3.org/2000/svg">
 <defs>
  <style id="current-color-scheme" type="text/css">.ColorScheme-Text { color:#585b6c; } .ColorScheme-Highlight { color:#29ACCC; }</style>
 </defs>
 <path class="ColorScheme-Text" d="m12 3a9 9 0 0 0-9 9 9 9 0 0 0 9 9 9 9 0 0 0 9-9 9 9 0 0 0-9-9zm0 2a7 7 0 0 1 7 7 7 7 0 0 1-7 7 7 7 0 0 1-7-7 7 7 0 0 1 7-7z" fill="currentColor"/>
 <rect class="ColorScheme-Text" x="8" y="11" width="8" height="2" rx="1" ry="1" fill="currentColor" opacity=".45"/>
</svg>
